<?xml version="1.0" standalone="no"?>
<!DOCTYPE svg PUBLIC "-//W3C//DTD SVG 20010904//EN"
 "http://www.w3.org/TR/2001/REC-SVG-20010904/DTD/svg10.dtd">
<svg version="1.0" xmlns="http://www.w3.org/2000/svg"
 width="500.000000pt" height="500.000000pt" viewBox="0 0 500.000000 500.000000"
 preserveAspectRatio="xMidYMid meet">

<g transform="translate(0.000000,500.000000) scale(0.100000,-0.100000)"
fill="#000000" stroke="none">
<path d="M2606 4082 c-4 -7 -4 -17 0 -24 5 -7 2 -9 -9 -5 -12 4 -14 2 -10 -10
4 -11 2 -14 -5 -9 -7 4 -12 2 -12 -4 0 -14 -25 -40 -38 -40 -17 0 -23 -41 -29
-177 -4 -99 -9 -133 -19 -137 -8 -3 -14 0 -14 7 0 8 -4 6 -10 -3 -8 -13 -10
-13 -10 2 0 11 -5 15 -15 12 -8 -4 -15 -1 -15 7 0 7 -2 10 -5 7 -3 -2 6 -42
19 -89 14 -46 30 -112 37 -146 9 -50 15 -63 30 -63 12 0 21 9 24 28 6 27 15
62 39 157 7 28 17 59 23 70 6 11 20 64 33 118 18 77 22 117 17 180 -5 88 -19
138 -31 119z"/>
<path d="M3046 3986 c12 -32 -61 -125 -199 -252 -37 -34 -74 -78 -82 -98 -10
-23 -20 -34 -27 -30 -7 4 -8 3 -4 -4 8 -13 -10 -52 -25 -52 -5 0 -14 11 -21
25 -6 13 -14 22 -18 20 -5 -3 -15 -46 -25 -96 -22 -121 -12 -132 56 -62 27 28
90 79 139 112 102 70 158 130 199 212 45 90 54 218 16 233 -9 3 -12 0 -9 -8z"/>
<path d="M2233 3810 c-1 -11 -16 -32 -33 -46 -22 -19 -29 -32 -24 -46 8 -27
-14 -78 -32 -71 -8 3 -14 1 -14 -4 0 -12 -59 -11 -80 1 -46 27 58 -64 130
-114 47 -32 105 -77 130 -99 24 -23 49 -40 55 -38 16 6 6 112 -21 205 -26 89
-62 172 -92 210 -17 22 -18 22 -19 2z"/>
<path d="M2670 3633 c0 -6 8 -17 18 -24 16 -13 16 -13 2 6 -8 11 -16 22 -17
24 -2 2 -3 0 -3 -6z"/>
<path d="M2701 3574 c0 -11 3 -14 6 -6 3 7 2 16 -1 19 -3 4 -6 -2 -5 -13z"/>
<path d="M2733 3185 c0 -8 4 -12 9 -9 5 3 6 10 3 15 -9 13 -12 11 -12 -6z"/>
<path d="M2751 3158 c0 -9 -5 -18 -11 -20 -18 -6 -20 -76 -2 -90 14 -11 15
-10 9 6 -6 16 -5 17 7 7 12 -10 16 -8 21 10 5 14 2 25 -6 30 -11 7 -10 9 4 9
9 0 17 7 17 16 0 10 -6 14 -14 11 -10 -4 -16 2 -19 16 -3 14 -5 16 -6 5z"/>
<path d="M2898 3069 c-2 -7 -4 -26 -3 -41 1 -15 -1 -27 -4 -26 -20 2 -22 -5
-5 -24 15 -19 16 -20 2 -9 -16 12 -18 11 -18 -3 0 -9 7 -16 15 -16 19 0 19
-20 0 -89 -15 -59 -34 -88 -36 -56 0 15 -2 16 -6 5 -4 -8 -14 -21 -24 -28 -10
-7 -16 -19 -13 -27 3 -7 -4 -34 -15 -59 -11 -25 -18 -46 -15 -46 3 0 0 -9 -6
-21 -9 -17 -8 -25 7 -42 10 -11 13 -18 7 -14 -6 3 -21 -3 -32 -14 -18 -16 -22
-17 -22 -4 0 9 10 19 22 24 16 6 18 10 9 16 -8 4 -17 2 -21 -5 -6 -10 -9 -10
-13 1 -2 8 -3 6 -2 -3 2 -10 -5 -18 -18 -20 -11 -2 -22 -9 -25 -16 -3 -11 0
-12 17 -3 21 12 27 5 21 -24 -1 -5 7 -2 18 8 10 9 22 14 25 10 4 -3 7 -1 7 5
0 7 5 12 12 12 21 0 137 81 173 121 34 38 35 41 35 121 0 87 -30 203 -61 236
-9 10 -18 24 -21 32 -4 12 -5 12 -10 -1z"/>
<path d="M2117 2920 c3 -11 1 -20 -5 -20 -5 0 -12 -6 -15 -12 -3 -9 7 -14 29
-15 30 -3 34 0 34 22 0 14 -8 29 -19 35 -27 14 -30 13 -24 -10z"/>
<path d="M2845 2919 c-3 -4 2 -6 10 -5 21 3 28 13 10 13 -9 0 -18 -4 -20 -8z"/>
<path d="M2848 2893 c7 -3 16 -2 19 1 4 3 -2 6 -13 5 -11 0 -14 -3 -6 -6z"/>
<path d="M2900 2489 c-47 -33 -85 -64 -85 -69 0 -4 -4 -12 -9 -17 -5 -5 -6 -3
-2 5 12 20 -7 14 -39 -14 -16 -14 -24 -23 -17 -19 6 3 12 1 12 -5 0 -6 5 -8
11 -4 8 5 8 9 -1 14 -8 5 -8 9 3 13 18 7 16 -7 -6 -49 -9 -17 -27 -35 -39 -39
-19 -6 -20 -8 -5 -12 9 -2 17 -9 17 -14 0 -15 -22 -10 -43 9 -11 9 -17 11 -13
4 9 -15 -11 -49 -56 -95 -16 -17 -25 -33 -19 -35 11 -4 -18 -35 -49 -52 -11
-6 -18 -15 -15 -20 3 -4 -5 -6 -17 -2 -14 3 -19 2 -14 -6 4 -7 3 -12 -2 -12
-6 0 -10 -16 -9 -36 1 -38 -13 -54 -51 -54 -33 0 -22 -24 10 -25 15 0 30 -4
35 -9 5 -5 3 -6 -4 -2 -9 5 -11 2 -6 -9 4 -13 8 -14 14 -4 4 7 6 16 3 20 -2 4
4 13 13 20 15 13 16 11 10 -9 -5 -22 -4 -23 12 -8 10 9 23 16 30 16 7 0 10 4
7 9 -3 5 6 12 20 15 14 4 44 18 66 32 22 14 61 37 86 51 120 65 232 144 237
167 8 43 15 306 8 305 -5 -1 -46 -28 -93 -60z"/>
<path d="M2616 2513 c-4 -4 -15 -8 -24 -8 -9 0 -16 -6 -14 -14 2 -8 -3 -18
-10 -24 -9 -6 -8 -7 5 -3 9 3 17 0 17 -6 0 -6 3 -9 6 -6 3 4 1 16 -6 27 -13
26 2 28 21 3 8 -9 13 -15 12 -13 -2 2 1 9 7 15 10 13 -2 40 -14 29z"/>
<path d="M2486 2432 c-3 -5 1 -9 9 -9 8 0 12 4 9 9 -3 4 -7 8 -9 8 -2 0 -6 -4
-9 -8z"/>
<path d="M2840 1994 c-74 -45 -136 -86 -138 -92 -2 -6 -10 -8 -19 -5 -11 4
-14 2 -9 -5 4 -8 0 -12 -11 -13 -10 0 -13 -3 -5 -6 17 -7 15 -23 -3 -23 -13 0
-20 -12 -12 -24 4 -8 -73 -56 -90 -56 -12 0 -13 -3 -3 -15 10 -12 7 -13 -21
-5 -17 5 -29 7 -25 3 3 -3 0 -13 -7 -21 -10 -13 -9 -14 9 -4 13 7 25 7 35 1
12 -9 12 -10 -1 -6 -8 2 -22 -2 -32 -10 -9 -8 -23 -15 -30 -17 -8 -1 -27 -12
-42 -24 -30 -23 -52 -29 -41 -12 3 6 1 10 -4 10 -13 0 -14 -13 -2 -25 14 -15
-25 -57 -53 -59 -17 -1 -23 -6 -21 -18 2 -9 -3 -19 -11 -22 -8 -3 -14 -15 -14
-26 0 -11 -9 -28 -21 -38 -48 -40 -55 -78 -25 -147 9 -19 22 -50 30 -68 8 -18
26 -49 40 -70 14 -21 26 -40 26 -43 0 -15 105 -155 125 -168 51 -33 78 -17
157 94 135 190 218 378 295 670 27 102 65 298 61 315 -2 6 -64 -26 -138 -71z"/>
<path d="M2475 2030 c3 -5 10 -10 16 -10 5 0 9 5 9 10 0 6 -7 10 -16 10 -8 0
-12 -4 -9 -10z"/>
<path d="M2408 1953 c10 -4 9 -8 -5 -18 -11 -9 -24 -10 -34 -4 -13 6 -17 5
-15 -7 1 -9 8 -19 16 -24 18 -11 42 0 36 16 -3 9 2 14 14 14 11 0 20 4 20 9 0
9 -25 22 -38 20 -4 0 -1 -3 6 -6z"/>
<path d="M2440 1917 c0 -4 -4 -6 -8 -3 -5 3 -9 -1 -9 -8 0 -7 6 -13 14 -13 7
0 11 3 8 6 -3 3 5 11 17 17 l23 13 -22 -2 c-13 -1 -23 -5 -23 -10z"/>
<path d="M2339 1878 c-5 -21 -7 -50 -3 -40 3 6 12 12 21 12 17 0 13 22 -5 28
-7 2 -12 2 -13 0z"/>
<path d="M2280 1835 c-7 -8 -8 -15 -2 -15 5 0 15 7 22 15 7 8 8 15 2 15 -5 0
-15 -7 -22 -15z"/>
<path d="M2605 1841 c-3 -5 -2 -12 3 -15 5 -3 9 1 9 9 0 17 -3 19 -12 6z"/>
<path d="M2190 1810 c0 -5 5 -10 10 -10 6 0 10 5 10 10 0 6 -4 10 -10 10 -5 0
-10 -4 -10 -10z"/>
<path d="M2248 1796 c-25 -10 -26 -13 -10 -24 13 -9 14 -10 1 -6 -16 5 -57
-32 -46 -43 4 -3 7 -1 7 5 0 7 5 12 10 12 7 0 7 -8 -1 -22 -12 -22 -11 -22 8
-6 16 15 70 99 61 97 -2 0 -15 -6 -30 -13z m-8 -40 c0 -3 -4 -8 -10 -11 -5 -3
-10 -1 -10 4 0 6 5 11 10 11 6 0 10 -2 10 -4z"/>
<path d="M2180 1753 c-8 -16 -16 -32 -19 -37 -2 -5 1 -6 7 -2 7 4 12 12 12 18
0 6 7 20 17 30 9 10 12 18 6 18 -5 0 -16 -12 -23 -27z"/>
<path d="M2139 1733 c0 -5 -2 -23 -4 -41 -1 -18 0 -31 3 -27 7 7 13 75 7 75
-3 0 -5 -3 -6 -7z"/>
<path d="M2144 1643 c4 -7 2 -13 -3 -13 -6 0 -11 -7 -11 -15 0 -8 6 -12 14 -9
15 6 16 28 1 41 -4 4 -5 2 -1 -4z"/>
</g>
</svg>
